Coordinates
version=1
nRows=13
nColumns=40
inDegrees=yes

Units are S.I. units (second, meters, Newtons, ...)
Angles are in degrees.

endheader
time	pelvis_tilt	pelvis_list	pelvis_rotation	pelvis_tx	pelvis_ty	pelvis_tz	hip_flexion_r	hip_adduction_r	hip_rotation_r	knee_angle_r	knee_angle_r_beta	ankle_angle_r	subtalar_angle_r	mtp_angle_r	hip_flexion_l	hip_adduction_l	hip_rotation_l	knee_angle_l	knee_angle_l_beta	ankle_angle_l	subtalar_angle_l	mtp_angle_l	lumbar_extension	lumbar_bending	lumbar_rotation	arm_flex_r	arm_add_r	arm_rot_r	elbow_flex_r	pro_sup_r	wrist_flex_r	wrist_dev_r	arm_flex_l	arm_add_l	arm_rot_l	elbow_flex_l	pro_sup_l	wrist_flex_l	wrist_dev_l
     16.40750000	     -5.48624227	     -4.99629952	      1.48377366	      0.96738751	      0.91742483	      0.45080423	      5.46779048	      0.68190706	    -12.16934180	     33.37817824	     33.37817824	     15.02971565	     -7.38906661	     -8.70137759	     29.22868654	     -5.18649657	     -3.93661950	     26.90532535	     26.90532535	      7.10560587	    -15.66893032	      3.97846315	     -8.29363220	      2.84502858	      4.24296539	     29.20224523	    -14.89199617	      3.07480602	     96.56640374	     44.55927841	      0.00000000	      0.00000000	     -7.33704967	     -7.60453707	      0.82398420	     25.86618510	     44.80054700	      0.00000000	      0.00000000
     16.41971429	     -5.45047823	     -4.76883973	      1.35388966	      0.96731386	      0.91856621	      0.44903401	      7.24042568	     -0.10572092	    -12.16374853	     37.34931346	     37.34931346	     13.57682830	     -9.51224512	     -8.97870318	     28.48851634	     -4.99516665	     -4.45686248	     26.71844903	     26.71844903	      7.68864224	    -15.15169614	      3.47942894	     -8.40608169	      2.44494821	      4.02285259	     27.32897758	    -14.85647131	      3.36811037	     95.57282594	     44.57795002	      0.00000000	      0.00000000	     -6.50253787	     -7.72823009	      0.71889424	     26.21624987	     44.84048146	      0.00000000	      0.00000000
     16.43192857	     -5.65735616	     -4.65340670	      1.13456295	      0.96689424	      0.91927391	      0.44766198	      9.48229915	     -0.65274427	    -11.93695641	     41.45413106	     41.45413106	     11.89834612	    -12.50957627	     -9.01674729	     27.96635495	     -5.01572655	     -5.25175902	     26.38887782	     26.38887782	      8.11442265	    -14.31920478	      2.66656411	     -8.18398283	      2.13193975	      4.01983973	     25.44645298	    -14.98632888	      3.42857000	     94.05208915	     44.62559676	      0.00000000	      0.00000000	     -5.69597836	     -7.87664708	      0.46511137	     26.66439054	     44.91296494	      0.00000000	      0.00000000
     16.44414286	     -5.64666379	     -4.37447280	      0.99358598	      0.96646489	      0.92023873	      0.44596161	     11.51128442	     -1.55088597	    -12.07085541	     45.52995034	     45.52995034	     10.33953329	    -14.68750140	     -8.61947250	     27.20623190	     -4.80566580	     -5.96776972	     26.07601351	     26.07601351	      8.54759288	    -13.54285939	      1.99835081	     -8.30757362	      1.74596009	      3.73376067	     23.57024084	    -14.88983500	      3.61082524	     92.75834760	     44.65902691	      0.00000000	      0.00000000	     -4.84611699	     -8.09899761	      0.26156668	     27.11215651	     44.97094251	      0.00000000	      0.00000000
     16.45635714	     -5.63485204	     -4.21321871	      0.84897263	      0.96592509	      0.92101965	      0.44452636	     13.72841341	     -2.24879077	    -12.09242051	     49.83270614	     49.83270614	     10.36401354	    -16.13377978	     -3.82522433	     26.42926167	     -4.77011259	     -6.81350599	     25.67068853	     25.67068853	      8.44294975	    -12.76136592	     -0.22753782	     -8.37734515	      1.45346193	      3.25362562	     22.04354648	    -14.41811332	      3.64622366	     90.23615213	     44.77755812	      0.00000000	      0.00000000	     -4.24800443	     -8.21849690	     -1.19354890	     28.02063945	     45.29466283	      0.00000000	      0.00000000
     16.46857143	     -5.65349359	     -3.86111063	      0.78574411	      0.96525831	      0.92170217	      0.44275606	     15.83176472	     -3.40007469	    -12.53307427	     53.66756580	     53.66756580	      9.28077191	    -17.67962303	     -3.26173464	     25.70017627	     -4.41536504	     -7.44200544	     25.29229781	     25.29229781	      8.86367217	    -12.00043410	     -0.56159599	     -8.48537602	      1.01028800	      2.88654858	     20.05985880	    -14.47385004	      3.93683272	     89.00292322	     44.80254997	      0.00000000	      0.00000000	     -3.25165181	     -8.47747137	     -1.32246292	     28.47311068	     45.33547805	      0.00000000	      0.00000000
     16.48078571	     -5.67073802	     -3.68818439	      0.69676243	      0.96449859	      0.92233462	      0.44129904	     18.17188002	     -4.20913986	    -12.65787849	     57.74863926	     57.74863926	     10.78102140	    -18.06681854	      4.39168843	     25.01129886	     -4.37182184	     -8.36073587	     24.98483805	     24.98483805	      9.29984979	    -10.63780932	     -1.56537310	     -8.50086919	      0.74635974	      2.41888544	     18.59026653	    -14.04427031	      3.69223785	     85.83598678	     44.92943875	      0.00000000	      0.00000000	     -2.40395691	     -8.63391227	     -2.12324372	     29.16614364	     45.50720295	      0.00000000	      0.00000000
     16.49300000	     -5.60998377	     -3.37156502	      0.68392572	      0.96376808	      0.92300877	      0.43957767	     20.10292095	     -5.41171957	    -13.10449964	     61.00344185	     61.00344185	     10.28837526	    -18.73150183	      4.81003701	     24.24363851	     -4.00755063	     -8.82467962	     24.65739956	     24.65739956	      9.70540955	    -10.04167153	     -1.83621165	     -8.70182243	      0.35839774	      2.07290206	     16.50324285	    -14.18803155	      4.01453058	     84.45696288	     44.95661258	      0.00000000	      0.00000000	     -1.32092723	     -8.95457075	     -2.24861826	     29.67178278	     45.54601931	      0.00000000	      0.00000000
     16.50521429	     -5.60388737	     -3.13189546	      0.58951096	      0.96295965	      0.92372421	      0.43806792	     22.13501001	     -6.40856086	    -13.26786714	     63.98958088	     63.98958088	     10.50361223	    -19.01228243	      6.75664278	     23.43677177	     -3.78998456	     -9.55797664	     24.14507837	     24.14507837	     10.11980538	     -9.04011352	     -2.27335028	     -8.80487765	      0.08879495	      2.12270142	     14.63668134	    -14.50627797	      3.95566133	     81.75848704	     45.04164586	      0.00000000	      0.00000000	     -0.09660751	     -9.11436964	     -2.42401126	     30.28637557	     45.59625070	      0.00000000	      0.00000000
     16.51742857	     -5.51012179	     -3.08028207	      0.59387192	      0.96215334	      0.92453414	      0.43675848	     24.14683713	     -7.00461456	    -13.22677463	     66.78277392	     66.78277392	     12.12456507	    -19.06232586	     12.99559715	     22.66923698	     -3.75715346	    -10.07473791	     23.84576383	     23.84576383	     10.48183090	     -8.13445430	     -2.92551041	     -8.92476251	      0.03721959	      1.28234774	     13.54002398	    -13.85574759	      3.71744289	     77.81262600	     45.17992971	      0.00000000	      0.00000000	      0.82198075	     -9.50560354	     -2.95632285	     30.62610231	     45.70671474	      0.00000000	      0.00000000
     16.52964286	     -5.42592143	     -2.95452309	      0.56765306	      0.96142866	      0.92536245	      0.43541101	     25.88371673	     -7.73459101	    -13.21262399	     68.75854274	     68.75854274	     12.03886216	    -19.16144311	     13.07064832	     21.85035813	     -3.57405563	    -10.38591640	     23.44141397	     23.44141397	     10.90558062	     -7.55342647	     -3.15884294	     -9.09928704	     -0.07971055	      1.11522637	     11.47968201	    -14.20714411	      3.90110755	     75.93226706	     45.22686127	      0.00000000	      0.00000000	      2.04634139	     -9.72762614	     -3.05839531	     31.20210641	     45.74193118	      0.00000000	      0.00000000
     16.54185714	     -5.24288746	     -3.05567162	      0.53011806	      0.96068324	      0.92652030	      0.43441434	     27.42403444	     -8.04584238	    -13.12941740	     70.20306076	     70.20306076	     12.22899433	    -19.20943936	     14.10889182	     20.93376738	     -3.70591877	    -10.87832657	     23.04054295	     23.04054295	     11.27265160	     -6.66406546	     -3.64579009	     -9.36156545	      0.02406648	      0.99716498	     10.16613375	    -14.09978087	      3.35792802	     71.57259003	     45.38265127	      0.00000000	      0.00000000	      3.48514228	     -9.93066669	     -3.10421629	     31.35321610	     45.77629933	      0.00000000	      0.00000000
     16.55407143	     -5.14844411	     -3.11684081	      0.47847598	      0.95987874	      0.92752351	      0.43350306	     28.99908953	     -8.31428347	    -12.90745573	     71.17754166	     71.17754166	     12.21372419	    -19.20022024	     14.45726794	     20.09020083	     -3.72994063	    -11.13352617	     22.56661721	     22.56661721	     11.57723479	     -6.12862571	     -3.93435539	     -9.53864245	      0.09803559	      0.78815870	      8.68594093	    -14.13272773	      3.10424971	     68.12533237	     45.49567001	      0.00000000	      0.00000000	      4.80188658	    -10.18265736	     -3.14587348	     31.60709430	     45.80745948	      0.00000000	      0.00000000
